<mxfile host="app.diagrams.net" agent="Mozilla/5.0 (Windows NT 10.0; Win64; x64) AppleWebKit/537.36 (KHTML, like Gecko) Chrome/133.0.0.0 Safari/537.36" version="24.9.2">
  <diagram name="PÃ¡gina-1" id="O5E6dLrdYaUpQs6ViEkW">
    <mxGraphModel dx="500" dy="276" grid="1" gridSize="10" guides="1" tooltips="1" connect="1" arrows="1" fold="1" page="1" pageScale="1" pageWidth="827" pageHeight="1169" math="0" shadow="0">
      <root>
        <mxCell id="0" />
        <mxCell id="1" parent="0" />
        <mxCell id="tu6qIU0Kd4ytT9FtdNak-1" value="" style="endArrow=none;html=1;rounded=0;" edge="1" parent="1" source="tu6qIU0Kd4ytT9FtdNak-7">
          <mxGeometry width="50" height="50" relative="1" as="geometry">
            <mxPoint x="400" y="360" as="sourcePoint" />
            <mxPoint x="640" y="360" as="targetPoint" />
          </mxGeometry>
        </mxCell>
        <mxCell id="tu6qIU0Kd4ytT9FtdNak-2" value="" style="endArrow=none;html=1;rounded=0;" edge="1" parent="1">
          <mxGeometry width="50" height="50" relative="1" as="geometry">
            <mxPoint x="400" y="360" as="sourcePoint" />
            <mxPoint x="400" y="280" as="targetPoint" />
          </mxGeometry>
        </mxCell>
        <mxCell id="tu6qIU0Kd4ytT9FtdNak-3" value="" style="endArrow=none;html=1;rounded=0;" edge="1" parent="1">
          <mxGeometry width="50" height="50" relative="1" as="geometry">
            <mxPoint x="400" y="360" as="sourcePoint" />
            <mxPoint x="520" y="280" as="targetPoint" />
          </mxGeometry>
        </mxCell>
        <mxCell id="tu6qIU0Kd4ytT9FtdNak-4" value="" style="endArrow=none;html=1;rounded=0;" edge="1" parent="1">
          <mxGeometry width="50" height="50" relative="1" as="geometry">
            <mxPoint x="640" y="360" as="sourcePoint" />
            <mxPoint x="520" y="280" as="targetPoint" />
          </mxGeometry>
        </mxCell>
        <mxCell id="tu6qIU0Kd4ytT9FtdNak-5" value="" style="endArrow=none;html=1;rounded=0;" edge="1" parent="1">
          <mxGeometry width="50" height="50" relative="1" as="geometry">
            <mxPoint x="640" y="280" as="sourcePoint" />
            <mxPoint x="520" y="280" as="targetPoint" />
          </mxGeometry>
        </mxCell>
        <mxCell id="tu6qIU0Kd4ytT9FtdNak-6" value="" style="endArrow=none;html=1;rounded=0;" edge="1" parent="1">
          <mxGeometry width="50" height="50" relative="1" as="geometry">
            <mxPoint x="640" y="360" as="sourcePoint" />
            <mxPoint x="640" y="280" as="targetPoint" />
          </mxGeometry>
        </mxCell>
        <mxCell id="tu6qIU0Kd4ytT9FtdNak-8" value="" style="endArrow=none;html=1;rounded=0;" edge="1" parent="1" target="tu6qIU0Kd4ytT9FtdNak-7">
          <mxGeometry width="50" height="50" relative="1" as="geometry">
            <mxPoint x="400" y="360" as="sourcePoint" />
            <mxPoint x="640" y="360" as="targetPoint" />
          </mxGeometry>
        </mxCell>
        <mxCell id="tu6qIU0Kd4ytT9FtdNak-7" value="" style="ellipse;whiteSpace=wrap;html=1;fillColor=#080808;strokeWidth=0;" vertex="1" parent="1">
          <mxGeometry x="394" y="354" width="10" height="10" as="geometry" />
        </mxCell>
        <mxCell id="tu6qIU0Kd4ytT9FtdNak-10" value="" style="ellipse;whiteSpace=wrap;html=1;fillColor=#080808;strokeWidth=0;" vertex="1" parent="1">
          <mxGeometry x="394" y="275" width="10" height="10" as="geometry" />
        </mxCell>
        <mxCell id="tu6qIU0Kd4ytT9FtdNak-11" value="" style="ellipse;whiteSpace=wrap;html=1;fillColor=#080808;strokeWidth=0;" vertex="1" parent="1">
          <mxGeometry x="515" y="274" width="10" height="10" as="geometry" />
        </mxCell>
        <mxCell id="tu6qIU0Kd4ytT9FtdNak-42" style="edgeStyle=orthogonalEdgeStyle;rounded=0;orthogonalLoop=1;jettySize=auto;html=1;" edge="1" parent="1" source="tu6qIU0Kd4ytT9FtdNak-12">
          <mxGeometry relative="1" as="geometry">
            <mxPoint x="639" y="400" as="targetPoint" />
          </mxGeometry>
        </mxCell>
        <mxCell id="tu6qIU0Kd4ytT9FtdNak-12" value="" style="ellipse;whiteSpace=wrap;html=1;fillColor=#080808;strokeWidth=0;" vertex="1" parent="1">
          <mxGeometry x="634" y="354" width="10" height="10" as="geometry" />
        </mxCell>
        <mxCell id="tu6qIU0Kd4ytT9FtdNak-13" value="" style="ellipse;whiteSpace=wrap;html=1;fillColor=#080808;strokeWidth=0;" vertex="1" parent="1">
          <mxGeometry x="634" y="275" width="10" height="10" as="geometry" />
        </mxCell>
        <mxCell id="tu6qIU0Kd4ytT9FtdNak-15" value="" style="triangle;whiteSpace=wrap;html=1;" vertex="1" parent="1">
          <mxGeometry x="384" y="272" width="10" height="16" as="geometry" />
        </mxCell>
        <mxCell id="tu6qIU0Kd4ytT9FtdNak-17" value="" style="triangle;whiteSpace=wrap;html=1;" vertex="1" parent="1">
          <mxGeometry x="384" y="351" width="10" height="16" as="geometry" />
        </mxCell>
        <mxCell id="tu6qIU0Kd4ytT9FtdNak-19" value="" style="endArrow=none;html=1;rounded=0;" edge="1" parent="1">
          <mxGeometry width="50" height="50" relative="1" as="geometry">
            <mxPoint x="364" y="272" as="sourcePoint" />
            <mxPoint x="384" y="272" as="targetPoint" />
          </mxGeometry>
        </mxCell>
        <mxCell id="tu6qIU0Kd4ytT9FtdNak-20" value="" style="endArrow=none;html=1;rounded=0;" edge="1" parent="1">
          <mxGeometry width="50" height="50" relative="1" as="geometry">
            <mxPoint x="364" y="278.92" as="sourcePoint" />
            <mxPoint x="384" y="278.92" as="targetPoint" />
          </mxGeometry>
        </mxCell>
        <mxCell id="tu6qIU0Kd4ytT9FtdNak-21" value="" style="endArrow=none;html=1;rounded=0;" edge="1" parent="1">
          <mxGeometry width="50" height="50" relative="1" as="geometry">
            <mxPoint x="364" y="285" as="sourcePoint" />
            <mxPoint x="384" y="285" as="targetPoint" />
          </mxGeometry>
        </mxCell>
        <mxCell id="tu6qIU0Kd4ytT9FtdNak-22" value="" style="endArrow=none;html=1;rounded=0;" edge="1" parent="1">
          <mxGeometry width="50" height="50" relative="1" as="geometry">
            <mxPoint x="364" y="352.42" as="sourcePoint" />
            <mxPoint x="384" y="352.42" as="targetPoint" />
          </mxGeometry>
        </mxCell>
        <mxCell id="tu6qIU0Kd4ytT9FtdNak-23" value="" style="endArrow=none;html=1;rounded=0;" edge="1" parent="1">
          <mxGeometry width="50" height="50" relative="1" as="geometry">
            <mxPoint x="364" y="359.34000000000003" as="sourcePoint" />
            <mxPoint x="384" y="359.34000000000003" as="targetPoint" />
          </mxGeometry>
        </mxCell>
        <mxCell id="tu6qIU0Kd4ytT9FtdNak-24" value="" style="endArrow=none;html=1;rounded=0;" edge="1" parent="1">
          <mxGeometry width="50" height="50" relative="1" as="geometry">
            <mxPoint x="364" y="365.42" as="sourcePoint" />
            <mxPoint x="384" y="365.42" as="targetPoint" />
          </mxGeometry>
        </mxCell>
        <mxCell id="tu6qIU0Kd4ytT9FtdNak-25" value="" style="triangle;whiteSpace=wrap;html=1;rotation=90;" vertex="1" parent="1">
          <mxGeometry x="515" y="262" width="10" height="15" as="geometry" />
        </mxCell>
        <mxCell id="tu6qIU0Kd4ytT9FtdNak-26" value="" style="triangle;whiteSpace=wrap;html=1;rotation=90;" vertex="1" parent="1">
          <mxGeometry x="634" y="262" width="10" height="15" as="geometry" />
        </mxCell>
        <mxCell id="tu6qIU0Kd4ytT9FtdNak-27" value="" style="ellipse;whiteSpace=wrap;html=1;aspect=fixed;" vertex="1" parent="1">
          <mxGeometry x="511" y="258" width="6" height="6" as="geometry" />
        </mxCell>
        <mxCell id="tu6qIU0Kd4ytT9FtdNak-31" value="" style="ellipse;whiteSpace=wrap;html=1;aspect=fixed;" vertex="1" parent="1">
          <mxGeometry x="518" y="258" width="6" height="6" as="geometry" />
        </mxCell>
        <mxCell id="tu6qIU0Kd4ytT9FtdNak-32" value="" style="ellipse;whiteSpace=wrap;html=1;aspect=fixed;" vertex="1" parent="1">
          <mxGeometry x="525" y="258" width="6" height="6" as="geometry" />
        </mxCell>
        <mxCell id="tu6qIU0Kd4ytT9FtdNak-33" value="" style="ellipse;whiteSpace=wrap;html=1;aspect=fixed;" vertex="1" parent="1">
          <mxGeometry x="629" y="258" width="6" height="6" as="geometry" />
        </mxCell>
        <mxCell id="tu6qIU0Kd4ytT9FtdNak-34" value="" style="ellipse;whiteSpace=wrap;html=1;aspect=fixed;" vertex="1" parent="1">
          <mxGeometry x="636" y="258" width="6" height="6" as="geometry" />
        </mxCell>
        <mxCell id="tu6qIU0Kd4ytT9FtdNak-35" value="" style="ellipse;whiteSpace=wrap;html=1;aspect=fixed;" vertex="1" parent="1">
          <mxGeometry x="643" y="258" width="6" height="6" as="geometry" />
        </mxCell>
        <mxCell id="tu6qIU0Kd4ytT9FtdNak-37" style="edgeStyle=orthogonalEdgeStyle;rounded=0;orthogonalLoop=1;jettySize=auto;html=1;" edge="1" parent="1" source="tu6qIU0Kd4ytT9FtdNak-36">
          <mxGeometry relative="1" as="geometry">
            <mxPoint x="584" y="280" as="targetPoint" />
          </mxGeometry>
        </mxCell>
        <mxCell id="tu6qIU0Kd4ytT9FtdNak-36" value="AREA = A/2" style="text;html=1;align=center;verticalAlign=middle;whiteSpace=wrap;rounded=0;" vertex="1" parent="1">
          <mxGeometry x="539" y="228" width="90" height="30" as="geometry" />
        </mxCell>
        <mxCell id="tu6qIU0Kd4ytT9FtdNak-39" value="" style="endArrow=classic;html=1;rounded=0;" edge="1" parent="1">
          <mxGeometry width="50" height="50" relative="1" as="geometry">
            <mxPoint x="642" y="279.76" as="sourcePoint" />
            <mxPoint x="706" y="279.76" as="targetPoint" />
          </mxGeometry>
        </mxCell>
        <mxCell id="tu6qIU0Kd4ytT9FtdNak-40" value="10000 / 2" style="text;html=1;align=center;verticalAlign=middle;whiteSpace=wrap;rounded=0;" vertex="1" parent="1">
          <mxGeometry x="660" y="254" width="60" height="30" as="geometry" />
        </mxCell>
        <mxCell id="tu6qIU0Kd4ytT9FtdNak-41" value="5000" style="text;html=1;align=center;verticalAlign=middle;whiteSpace=wrap;rounded=0;" vertex="1" parent="1">
          <mxGeometry x="629" y="364" width="60" height="30" as="geometry" />
        </mxCell>
      </root>
    </mxGraphModel>
  </diagram>
</mxfile>
